<svg width="150" height="150" viewBox="0 0 150 150" fill="none" xmlns="http://www.w3.org/2000/svg">
<path d="M57.0312 45.3125L17.9688 92.1875H53.125L49.2188 123.438L88.2812 76.5625H53.125L57.0312 45.3125Z" fill="#089285"/>
<path d="M100.781 20.3125L61.7188 67.1875H96.875L92.9687 98.4375L132.031 51.5625H96.875L100.781 20.3125Z" fill="#FF8B00"/>
<g clip-path="url(#clip0)">
<path d="M99.5652 112.647C95.7016 113.756 91.5718 113.475 87.894 111.853C84.2161 110.232 81.2227 107.373 79.4344 103.773" stroke="#333333" stroke-linecap="round" stroke-linejoin="round"/>
<path d="M99.9249 125.698C94.123 127.54 87.8487 127.201 82.2788 124.745C76.709 122.29 72.2263 117.887 69.6715 112.362" stroke="#333333" stroke-linecap="round" stroke-linejoin="round"/>
</g>
<g clip-path="url(#clip1)">
<path d="M49.6238 33.3439C53.4874 32.2358 57.6171 32.5169 61.295 34.1382C64.9729 35.7595 67.9662 38.6185 69.7546 42.2181" stroke="#333333" stroke-linecap="round" stroke-linejoin="round"/>
<path d="M49.264 20.293C55.066 18.4519 61.3403 18.7907 66.9101 21.2461C72.48 23.7014 76.9627 28.1045 79.5174 33.6295" stroke="#333333" stroke-linecap="round" stroke-linejoin="round"/>
</g>
<defs>
<clipPath id="clip0">
<rect width="50" height="37.5" fill="white" transform="translate(102.002 141.982) rotate(-156.211)"/>
</clipPath>
<clipPath id="clip1">
<rect width="50" height="37.5" fill="white" transform="translate(47.187 4.00912) rotate(23.7891)"/>
</clipPath>
</defs>
</svg>
